<svg width="123" height="122" viewBox="0 0 123 122" fill="none" xmlns="http://www.w3.org/2000/svg">
    <g clip-path="url(#clip0_2_2)">
        <path d="M97.34 0.740001C98.2 -0.189999 99.64 -0.249999 100.57 0.610001C101.5 1.47 101.56 2.91 100.7 3.84L81.98 24.1L81.95 24.14C79.66 26.91 78.09 29.47 77.39 31.81C76.77 33.88 76.86 35.76 77.78 37.4C78.27 38.28 78.11 39.36 77.46 40.07L68.57 49.69C67.7 48.74 67.01 47.97 66.55 47.47C66.34 47.19 66.1 46.92 65.85 46.66L65.83 46.68C65.71 46.55 65.58 46.43 65.45 46.31L73.05 38.08C72.16 35.7 72.17 33.17 72.99 30.48C73.87 27.56 75.74 24.45 78.43 21.21C78.49 21.13 78.54 21.05 78.61 20.98L97.32 0.720001L97.34 0.740001ZM57.13 55.01C56.29 54.07 56.37 52.62 57.31 51.78C58.25 50.94 59.7 51.02 60.54 51.96C69.95 62.5 99.04 93.69 107.1 105.35C117.73 120.4 101.27 125.14 95.81 119.66C82.17 106.47 53.21 72.84 40.48 58.58C35.9 60.52 31.45 60.82 26.98 59.54C22.17 58.17 17.46 54.96 12.68 50.03L12.62 49.97C8.98 46.13 6.13 42.34 4.07 38.59C1.96 34.73 0.670003 30.91 0.210003 27.12C-0.279997 23.04 0.100003 19.24 1.2 15.87C2.49 11.91 4.78 8.56 7.78 6.07C10.8 3.57 14.51 1.95 18.65 1.45C22.09 1.04 25.84 1.39 29.72 2.66C35.09 4.41 41.35 8.76 46.54 14.34C50.37 18.45 53.65 23.26 55.6 28.21C57.63 33.37 58.25 38.71 56.62 43.71C55.66 46.67 53.92 49.45 51.22 51.96C50.29 52.82 48.85 52.76 47.99 51.84C47.13 50.91 47.19 49.47 48.11 48.61C50.2 46.66 51.54 44.53 52.27 42.28C53.53 38.41 53 34.12 51.34 29.9C49.6 25.48 46.65 21.16 43.19 17.45C38.51 12.43 32.96 8.54 28.28 7.01C25.07 5.97 22 5.67 19.19 6.01C15.93 6.41 13.01 7.66 10.68 9.61C8.34 11.56 6.55 14.19 5.52 17.32C4.63 20.05 4.32 23.19 4.73 26.58C5.12 29.78 6.23 33.05 8.05 36.39C9.96 39.82 12.58 43.29 15.95 46.84L15.97 46.87C20.19 51.22 24.24 54.02 28.25 55.16C32.04 56.24 35.9 55.82 39.93 53.81C40.85 53.28 42.04 53.46 42.77 54.28C55.19 68.19 85.4 103.2 98.78 116.17C104.59 118.54 107.81 115.62 105.03 110.47C100.7 102.43 63.5 62.17 57.13 55.01ZM45.07 75.12L15.91 106.67C15.85 106.73 15.8 106.79 15.73 106.85C11.47 111.45 19.01 118.15 23.69 113.67L52.01 83.02L55.05 86.47L26.95 116.88C26.89 116.95 26.83 117.01 26.75 117.08C25.07 118.49 23.38 119.41 21.67 119.79C19.91 120.19 18.18 120.01 16.52 119.23C16.24 119.12 15.98 118.98 15.75 118.77L11.72 115.04C11.66 114.98 11.6 114.93 11.54 114.86C9.98 113.06 9.24 111.14 9.44 109.11C9.63 107.19 10.65 105.32 12.58 103.52L42.02 71.66L45.07 75.12ZM75.63 57.46L77.36 55.59C78.22 54.66 79.67 54.6 80.59 55.46C81.51 56.32 81.58 57.76 80.72 58.69L78.72 60.85L75.63 57.46ZM104.45 7.43C105.31 6.5 106.75 6.44 107.68 7.3C108.61 8.16 108.67 9.6 107.81 10.53L91.4 28.3C90.54 29.23 89.1 29.29 88.17 28.43C87.24 27.57 87.18 26.13 88.04 25.2L104.45 7.43ZM111.55 14C112.41 13.07 113.85 13.01 114.78 13.87C115.71 14.73 115.77 16.17 114.91 17.1L98.51 34.86C97.65 35.79 96.21 35.85 95.28 34.99C94.35 34.13 94.29 32.69 95.15 31.76L111.55 14ZM118.91 20.83C119.77 19.9 121.21 19.84 122.14 20.7C123.07 21.56 123.13 23.01 122.27 23.93L103.55 44.2C103.48 44.27 103.41 44.33 103.34 44.4C99.08 48.5 95.01 50.87 91.12 51.54C86.9 52.27 83.03 51.07 79.48 47.97C78.53 47.14 78.44 45.69 79.26 44.75C80.09 43.8 81.54 43.71 82.48 44.53C84.93 46.67 87.55 47.51 90.32 47.02C93.3 46.51 96.58 44.54 100.16 41.09L100.18 41.07L118.89 20.82L118.91 20.83Z" fill="white" />
    </g>
    <defs>
        <clipPath id="clip0_2_2">
            <rect width="122.88" height="121.87" fill="white" />
        </clipPath>
    </defs>
</svg>